<svg xmlns="http://www.w3.org/2000/svg" xmlns:xlink="http://www.w3.org/1999/xlink" width="354.487" height="314.25" viewBox="0 0 354.487 314.25">
  <defs>
    <filter id="Rectangle_120" x="0" y="0" width="354.487" height="314.25" filterUnits="userSpaceOnUse">
      <feOffset dy="3" input="SourceAlpha"/>
      <feGaussianBlur stdDeviation="3" result="blur"/>
      <feFlood flood-opacity="0.161"/>
      <feComposite operator="in" in2="blur"/>
      <feComposite in="SourceGraphic"/>
    </filter>
    <clipPath id="clip-path">
      <rect id="Rectangle_166" data-name="Rectangle 166" width="336.487" height="296.252" fill="none"/>
    </clipPath>
  </defs>
  <g id="Group_67" data-name="Group 67" transform="translate(9 5.998)">
    <g transform="matrix(1, 0, 0, 1, -9, -6)" filter="url(#Rectangle_120)">
      <rect id="Rectangle_120-2" data-name="Rectangle 120" width="336.487" height="296.25" transform="translate(9 6)" fill="#f8e9ae"/>
    </g>
    <rect id="Rectangle_121" data-name="Rectangle 121" width="336.487" height="10.179" transform="translate(0 -0.001)" fill="#37315c"/>
    <rect id="Rectangle_122" data-name="Rectangle 122" width="41.577" height="41.577" transform="translate(15.181 61.038)" fill="#ffd040"/>
    <rect id="Rectangle_123" data-name="Rectangle 123" width="41.577" height="41.577" transform="translate(59.244 61.038)" fill="#fff"/>
    <rect id="Rectangle_124" data-name="Rectangle 124" width="41.577" height="41.577" transform="translate(103.307 61.038)" fill="#e6e4f0"/>
    <rect id="Rectangle_125" data-name="Rectangle 125" width="41.577" height="41.577" transform="translate(147.371 61.038)" fill="#fff"/>
    <rect id="Rectangle_126" data-name="Rectangle 126" width="41.577" height="41.577" transform="translate(191.434 61.038)" fill="#fff"/>
    <rect id="Rectangle_127" data-name="Rectangle 127" width="41.577" height="41.577" transform="translate(235.498 61.038)" fill="#fff"/>
    <rect id="Rectangle_128" data-name="Rectangle 128" width="41.577" height="41.577" transform="translate(279.56 61.038)" fill="#fff"/>
    <rect id="Rectangle_129" data-name="Rectangle 129" width="41.577" height="41.577" transform="translate(15.181 104.938)" fill="#ffd040"/>
    <rect id="Rectangle_130" data-name="Rectangle 130" width="41.577" height="41.577" transform="translate(59.244 104.938)" fill="#fff"/>
    <rect id="Rectangle_131" data-name="Rectangle 131" width="41.577" height="41.577" transform="translate(103.307 104.938)" fill="#fff"/>
    <rect id="Rectangle_132" data-name="Rectangle 132" width="41.577" height="41.577" transform="translate(147.371 104.938)" fill="#fff"/>
    <rect id="Rectangle_133" data-name="Rectangle 133" width="41.577" height="41.577" transform="translate(191.434 104.938)" fill="#fff"/>
    <rect id="Rectangle_134" data-name="Rectangle 134" width="41.577" height="41.577" transform="translate(235.498 104.938)" fill="#fff"/>
    <rect id="Rectangle_135" data-name="Rectangle 135" width="41.577" height="41.577" transform="translate(279.56 104.938)" fill="#fff"/>
    <rect id="Rectangle_136" data-name="Rectangle 136" width="41.577" height="41.577" transform="translate(15.181 148.838)" fill="#ffd040"/>
    <rect id="Rectangle_137" data-name="Rectangle 137" width="41.577" height="41.577" transform="translate(59.244 148.838)" fill="#fff"/>
    <rect id="Rectangle_138" data-name="Rectangle 138" width="41.577" height="41.577" transform="translate(103.307 148.838)" fill="#fff"/>
    <rect id="Rectangle_139" data-name="Rectangle 139" width="41.577" height="41.577" transform="translate(147.371 148.838)" fill="#fff"/>
    <rect id="Rectangle_140" data-name="Rectangle 140" width="41.577" height="41.577" transform="translate(191.434 148.838)" fill="#fff"/>
    <rect id="Rectangle_141" data-name="Rectangle 141" width="41.577" height="41.577" transform="translate(235.498 148.838)" fill="#e6e4f0"/>
    <rect id="Rectangle_142" data-name="Rectangle 142" width="41.577" height="41.577" transform="translate(279.56 148.838)" fill="#fff"/>
    <rect id="Rectangle_143" data-name="Rectangle 143" width="41.577" height="41.577" transform="translate(15.181 192.738)" fill="#ffd040"/>
    <rect id="Rectangle_144" data-name="Rectangle 144" width="41.577" height="41.577" transform="translate(59.244 192.738)" fill="#fff"/>
    <rect id="Rectangle_145" data-name="Rectangle 145" width="41.577" height="41.577" transform="translate(103.307 192.738)" fill="#fff"/>
    <rect id="Rectangle_146" data-name="Rectangle 146" width="41.577" height="41.577" transform="translate(147.371 192.738)" fill="#fff"/>
    <rect id="Rectangle_147" data-name="Rectangle 147" width="41.577" height="41.577" transform="translate(191.434 192.738)" fill="#fff"/>
    <rect id="Rectangle_148" data-name="Rectangle 148" width="41.577" height="41.577" transform="translate(235.498 192.738)" fill="#fff"/>
    <rect id="Rectangle_149" data-name="Rectangle 149" width="41.577" height="41.577" transform="translate(279.56 192.738)" fill="#fff"/>
    <rect id="Rectangle_150" data-name="Rectangle 150" width="41.577" height="41.577" transform="translate(15.181 236.639)" fill="#ffd040"/>
    <rect id="Rectangle_151" data-name="Rectangle 151" width="41.577" height="41.577" transform="translate(59.244 236.639)" fill="#fff"/>
    <rect id="Rectangle_152" data-name="Rectangle 152" width="41.577" height="41.577" transform="translate(103.307 236.639)" fill="#fff"/>
    <rect id="Rectangle_153" data-name="Rectangle 153" width="41.577" height="41.577" transform="translate(147.371 236.639)" fill="#fff"/>
    <rect id="Rectangle_154" data-name="Rectangle 154" width="41.577" height="41.577" transform="translate(191.434 236.639)" fill="#e6e4f0"/>
    <rect id="Rectangle_155" data-name="Rectangle 155" width="41.577" height="41.577" transform="translate(235.498 236.639)" fill="#fff"/>
    <rect id="Rectangle_156" data-name="Rectangle 156" width="41.577" height="41.577" transform="translate(279.56 236.639)" fill="#fff"/>
    <g id="Group_64" data-name="Group 64" transform="translate(0 0)">
      <g id="Group_63" data-name="Group 63" clip-path="url(#clip-path)">
        <path id="Path_131" data-name="Path 131" d="M145.2,70.142a4.824,4.824,0,1,1-4.824-4.824,4.825,4.825,0,0,1,4.824,4.824" transform="translate(-2.982 -1.437)" fill="#ffc727"/>
        <path id="Path_132" data-name="Path 132" d="M70.05,116.3a2.516,2.516,0,1,1-2.516-2.516A2.516,2.516,0,0,1,70.05,116.3" transform="translate(-1.43 -2.503)" fill="#ffc727"/>
        <rect id="Rectangle_157" data-name="Rectangle 157" width="24.624" height="2.156" transform="translate(71.854 111.277)" fill="#c7c7c7"/>
        <rect id="Rectangle_158" data-name="Rectangle 158" width="15.967" height="2.156" transform="translate(71.854 115.141)" fill="#c7c7c7"/>
        <path id="Path_133" data-name="Path 133" d="M205.213,250.292a2.516,2.516,0,1,1-2.516-2.516,2.516,2.516,0,0,1,2.516,2.516" transform="translate(-4.404 -5.451)" fill="#ffc727"/>
        <rect id="Rectangle_159" data-name="Rectangle 159" width="24.624" height="2.156" transform="translate(204.044 242.325)" fill="#c7c7c7"/>
        <rect id="Rectangle_160" data-name="Rectangle 160" width="15.967" height="2.156" transform="translate(204.044 246.189)" fill="#c7c7c7"/>
        <path id="Path_134" data-name="Path 134" d="M250.268,69.532a2.516,2.516,0,1,1-2.516-2.516,2.516,2.516,0,0,1,2.516,2.516" transform="translate(-5.395 -1.474)" fill="#ffc727"/>
        <rect id="Rectangle_161" data-name="Rectangle 161" width="24.624" height="2.156" transform="translate(248.107 65.543)" fill="#c7c7c7"/>
        <rect id="Rectangle_162" data-name="Rectangle 162" width="15.967" height="2.156" transform="translate(248.107 69.407)" fill="#c7c7c7"/>
        <rect id="Rectangle_163" data-name="Rectangle 163" width="24.624" height="2.156" transform="translate(71.854 122.533)" fill="#c7c7c7"/>
        <path id="Path_135" data-name="Path 135" d="M67.524,124.739l.952,1.769,1.977.358-1.389,1.452.271,1.99-1.81-.872-1.809.872.27-1.99L64.6,126.866l1.977-.358Z" transform="translate(-1.421 -2.744)" fill="#ffc727"/>
        <rect id="Rectangle_164" data-name="Rectangle 164" width="24.624" height="2.156" transform="translate(248.119 154.092)" fill="#c7c7c7"/>
        <path id="Path_136" data-name="Path 136" d="M247.753,157.008l.952,1.769,1.977.358-1.389,1.452.27,1.99-1.809-.872-1.809.872.27-1.99-1.389-1.452,1.977-.358Z" transform="translate(-5.386 -3.454)" fill="#ffc727"/>
        <path id="Path_137" data-name="Path 137" d="M160.159,205.082a2.516,2.516,0,1,1-2.516-2.516,2.516,2.516,0,0,1,2.516,2.516" transform="translate(-3.413 -4.456)" fill="#ffc727"/>
        <rect id="Rectangle_165" data-name="Rectangle 165" width="24.624" height="2.156" transform="translate(159.98 198.111)" fill="#c7c7c7"/>
        <path id="Path_138" data-name="Path 138" d="M286.321,40.31a.409.409,0,0,1-.286.7.431.431,0,0,1-.3-.117l-1.824-1.849c-.02-.006-.026-.02-.032-.039a.082.082,0,0,0-.02-.013.187.187,0,0,1-.02-.052.036.036,0,0,1-.02-.026c-.006-.013-.006-.032-.014-.038s-.013-.026-.013-.033V38.8c0-.013-.007-.02-.007-.039s.007-.026.007-.032v-.046c0-.013.013-.019.013-.025a.5.5,0,0,0,.014-.052c0-.007.007-.007.007-.014a.633.633,0,0,1,.032-.059.012.012,0,0,1,.013-.013.124.124,0,0,1,.039-.045l1.824-1.849a.422.422,0,0,1,.584,0,.411.411,0,0,1,0,.584l-1.537,1.551Z" transform="translate(-6.243 -0.803)" fill="#a6a6a6"/>
        <path id="Path_139" data-name="Path 139" d="M298.068,36.824v3.829a.365.365,0,0,1-.364.358.355.355,0,0,1-.356-.358V37.921l-.935,1.3a.356.356,0,0,1-.291.151h-.014a.368.368,0,0,1-.3-.151l-.928-1.3v2.732a.36.36,0,0,1-.72,0V36.824a.36.36,0,0,1,.356-.357h.02a.35.35,0,0,1,.286.151l1.292,1.791,1.291-1.791a.357.357,0,0,1,.292-.151h.006a.372.372,0,0,1,.364.357" transform="translate(-6.471 -0.802)" fill="#a6a6a6"/>
        <path id="Path_140" data-name="Path 140" d="M303.039,37.029a2.385,2.385,0,0,1,0,3.284,2.123,2.123,0,0,1-1.55.694,2.187,2.187,0,0,1-1.59-.694,2.414,2.414,0,0,1,0-3.284,2.165,2.165,0,0,1,1.59-.694,2.1,2.1,0,0,1,1.55.694m-.083,1.642a1.683,1.683,0,0,0-.443-1.135,1.4,1.4,0,0,0-1.024-.462,1.417,1.417,0,0,0-1.053.462A1.657,1.657,0,0,0,300,38.671a1.629,1.629,0,0,0,.439,1.13,1.426,1.426,0,0,0,1.053.467,1.406,1.406,0,0,0,1.024-.467,1.655,1.655,0,0,0,.443-1.13" transform="translate(-6.583 -0.799)" fill="#a6a6a6"/>
        <path id="Path_141" data-name="Path 141" d="M305.639,40.655a.354.354,0,1,1-.707,0V36.878a.35.35,0,0,1,.143-.3.358.358,0,0,1,.493.078l2.1,2.9V36.884a.354.354,0,0,1,.351-.35.359.359,0,0,1,.357.35v3.771a.36.36,0,0,1-.357.357.349.349,0,0,1-.266-.13.168.168,0,0,1-.032-.039l-2.077-2.881Z" transform="translate(-6.708 -0.803)" fill="#a6a6a6"/>
        <path id="Path_142" data-name="Path 142" d="M312.742,37.188h-1.031v3.466a.357.357,0,1,1-.714,0V37.188H309.97a.361.361,0,0,1-.356-.363.351.351,0,0,1,.356-.357h2.772a.356.356,0,0,1,.358.357.366.366,0,0,1-.358.363" transform="translate(-6.811 -0.802)" fill="#a6a6a6"/>
        <path id="Path_143" data-name="Path 143" d="M314.269,40.654V36.825a.352.352,0,0,1,.358-.357.357.357,0,0,1,.363.357v1.557h1.681V36.825a.352.352,0,0,1,.357-.357.357.357,0,0,1,.363.357v3.829a.357.357,0,0,1-.363.357.352.352,0,0,1-.357-.357V39.1H314.99v1.558a.357.357,0,0,1-.363.357.352.352,0,0,1-.358-.357" transform="translate(-6.914 -0.802)" fill="#a6a6a6"/>
        <path id="Path_144" data-name="Path 144" d="M327.464,38.993s0,.007-.006.007a.505.505,0,0,1-.046.045l-1.825,1.849a.421.421,0,0,1-.583,0,.409.409,0,0,1,0-.584l1.537-1.551L325,37.208a.409.409,0,0,1,0-.584.421.421,0,0,1,.583,0l1.825,1.849a.408.408,0,0,1,.046.046c.006,0,.006.013.006.013.012.025.025.039.032.058s.006.007.006.014a.3.3,0,0,0,.021.059c0,.006,0,.006,0,.019v.046c0,.006.008.026.008.032s-.008.026-.008.032v.052c0,.007,0,.007,0,.013-.014.026-.014.046-.021.059s-.006.007-.006.02a.635.635,0,0,0-.032.059" transform="translate(-7.147 -0.803)" fill="#a6a6a6"/>
        <path id="Path_145" data-name="Path 145" d="M29.9,58.143a.338.338,0,0,1,.473-.046,2.118,2.118,0,0,0,1.24.5,1.4,1.4,0,0,0,.811-.24.583.583,0,0,0,.28-.467.368.368,0,0,0-.059-.207.609.609,0,0,0-.195-.195,2.6,2.6,0,0,0-.889-.305h-.013a3.562,3.562,0,0,1-.838-.253,1.4,1.4,0,0,1-.6-.507,1,1,0,0,1-.149-.532,1.2,1.2,0,0,1,.518-.948A1.927,1.927,0,0,1,31.6,54.6a2.545,2.545,0,0,1,1.415.518.335.335,0,0,1,.09.462.328.328,0,0,1-.461.1,1.88,1.88,0,0,0-1.045-.416,1.241,1.241,0,0,0-.728.221.516.516,0,0,0-.246.409.316.316,0,0,0,.046.182.631.631,0,0,0,.175.169,2.242,2.242,0,0,0,.811.285h.014a3.869,3.869,0,0,1,.9.273,1.517,1.517,0,0,1,.648.539,1.049,1.049,0,0,1,.156.552,1.258,1.258,0,0,1-.557,1.006,2.032,2.032,0,0,1-1.2.37,2.791,2.791,0,0,1-1.662-.649.345.345,0,0,1-.052-.473" transform="translate(-0.656 -1.201)" fill="#a6a6a6"/>
        <path id="Path_146" data-name="Path 146" d="M36.357,59.276A1.873,1.873,0,0,1,34.481,57.4V55.089a.351.351,0,0,1,.357-.356.361.361,0,0,1,.364.356V57.4a1.155,1.155,0,1,0,2.31,0V55.089a.357.357,0,0,1,.364-.356.351.351,0,0,1,.357.356V57.4a1.877,1.877,0,0,1-1.876,1.876" transform="translate(-0.759 -1.204)" fill="#a6a6a6"/>
        <path id="Path_147" data-name="Path 147" d="M40.487,58.92a.354.354,0,1,1-.708,0V55.143a.353.353,0,0,1,.144-.3.357.357,0,0,1,.493.078l2.1,2.9V55.149a.354.354,0,0,1,.351-.35.359.359,0,0,1,.357.35V58.92a.36.36,0,0,1-.357.357.349.349,0,0,1-.266-.13.13.13,0,0,1-.032-.039l-2.077-2.881Z" transform="translate(-0.875 -1.205)" fill="#a6a6a6"/>
        <path id="Path_148" data-name="Path 148" d="M78.492,55.09v3.83a.366.366,0,0,1-.364.357.356.356,0,0,1-.356-.357V56.187l-.935,1.3a.356.356,0,0,1-.292.15h-.013a.367.367,0,0,1-.3-.15l-.928-1.3V58.92a.36.36,0,0,1-.721,0V55.09a.36.36,0,0,1,.357-.357h.02a.35.35,0,0,1,.286.15l1.292,1.791,1.291-1.791a.356.356,0,0,1,.292-.15h.006a.37.37,0,0,1,.364.357" transform="translate(-1.641 -1.204)" fill="#a6a6a6"/>
        <path id="Path_149" data-name="Path 149" d="M83.462,55.294a2.383,2.383,0,0,1,0,3.284,2.123,2.123,0,0,1-1.551.694,2.189,2.189,0,0,1-1.59-.694,2.419,2.419,0,0,1,0-3.284,2.167,2.167,0,0,1,1.59-.694,2.1,2.1,0,0,1,1.551.694m-.084,1.642a1.681,1.681,0,0,0-.441-1.135,1.4,1.4,0,0,0-2.077,0,1.649,1.649,0,0,0-.441,1.135,1.624,1.624,0,0,0,.441,1.13,1.387,1.387,0,0,0,2.077,0,1.655,1.655,0,0,0,.441-1.13" transform="translate(-1.753 -1.201)" fill="#a6a6a6"/>
        <path id="Path_150" data-name="Path 150" d="M86.063,58.92a.354.354,0,1,1-.707,0V55.143a.35.35,0,0,1,.143-.3.357.357,0,0,1,.493.078l2.1,2.9V55.149a.354.354,0,0,1,.351-.35.359.359,0,0,1,.357.35V58.92a.36.36,0,0,1-.357.357.349.349,0,0,1-.266-.13.129.129,0,0,1-.032-.039l-2.077-2.881Z" transform="translate(-1.878 -1.205)" fill="#a6a6a6"/>
        <path id="Path_151" data-name="Path 151" d="M123.7,55.453h-1.032v3.466a.352.352,0,0,1-.357.357.356.356,0,0,1-.357-.357V55.453h-1.026a.362.362,0,0,1-.357-.364.351.351,0,0,1,.357-.356H123.7a.356.356,0,0,1,.357.356.366.366,0,0,1-.357.364" transform="translate(-2.653 -1.204)" fill="#a6a6a6"/>
        <path id="Path_152" data-name="Path 152" d="M127.11,59.276a1.873,1.873,0,0,1-1.876-1.876V55.089a.351.351,0,0,1,.357-.356.361.361,0,0,1,.364.356V57.4a1.155,1.155,0,1,0,2.31,0V55.089a.357.357,0,0,1,.364-.356.351.351,0,0,1,.357.356V57.4a1.877,1.877,0,0,1-1.876,1.876" transform="translate(-2.755 -1.204)" fill="#a6a6a6"/>
        <path id="Path_153" data-name="Path 153" d="M130.294,58.919v-3.83a.353.353,0,0,1,.358-.357h2.121a.361.361,0,0,1,.358.357.366.366,0,0,1-.358.364h-1.758V56.64h1.512a.36.36,0,0,1,0,.721h-1.512v1.194h1.758a.36.36,0,0,1,0,.721h-2.1c-.014,0-.014-.007-.014-.007l-.006.007a.357.357,0,0,1-.358-.357" transform="translate(-2.866 -1.204)" fill="#a6a6a6"/>
        <path id="Path_154" data-name="Path 154" d="M170.673,55.272l-1.59,3.784a.189.189,0,0,1-.032.059l-.007.007a.159.159,0,0,1-.032.038c0,.014-.006.014-.006.02a.219.219,0,0,0-.046.032h-.006c-.02.014-.032.033-.059.039h-.006a.007.007,0,0,0-.007.007.238.238,0,0,0-.053.013h-.013a.19.19,0,0,1-.065.007.172.172,0,0,1-.059-.007h-.019a.2.2,0,0,0-.046-.013c-.006-.007-.006-.007-.014-.007a.121.121,0,0,1-.058-.039h-.007c-.02-.013-.032-.025-.045-.032s-.007-.006-.014-.02-.019-.025-.025-.038-.013-.007-.013-.007a.179.179,0,0,1-.026-.059l-.85-2.012-.85,2.012a.568.568,0,0,1-.026.059.007.007,0,0,0-.007.007l-.039.038c0,.014-.007.014-.007.02a.186.186,0,0,0-.038.032H166.6c-.02.014-.039.033-.052.039h-.007a.007.007,0,0,0-.007.007.1.1,0,0,0-.051.013h-.021a.172.172,0,0,1-.059.007.207.207,0,0,1-.065-.007h-.02a.179.179,0,0,0-.045-.013c-.007-.007-.007-.007-.013-.007a.167.167,0,0,1-.06-.039h-.006c-.02-.013-.026-.025-.046-.032a.051.051,0,0,1-.013-.02c-.013-.013-.02-.025-.032-.038v-.007a.527.527,0,0,1-.032-.059l-1.6-3.784a.351.351,0,0,1,.2-.461.348.348,0,0,1,.461.188L166.4,58l.838-1.992a.358.358,0,0,1,.337-.221.372.372,0,0,1,.337.221L168.752,58,170.018,55a.36.36,0,0,1,.473-.188.349.349,0,0,1,.182.461" transform="translate(-3.618 -1.205)" fill="#a6a6a6"/>
        <path id="Path_155" data-name="Path 155" d="M171.87,58.919v-3.83a.353.353,0,0,1,.357-.357h2.122a.361.361,0,0,1,.358.357.366.366,0,0,1-.358.364h-1.758V56.64H174.1a.36.36,0,0,1,0,.721h-1.512v1.194h1.758a.36.36,0,0,1,0,.721h-2.1c-.014,0-.014-.007-.014-.007l-.006.007a.356.356,0,0,1-.357-.357" transform="translate(-3.781 -1.204)" fill="#a6a6a6"/>
        <path id="Path_156" data-name="Path 156" d="M175.8,58.92V55.09a.352.352,0,0,1,.357-.357h.767a2.271,2.271,0,0,1,0,4.543h-.767a.356.356,0,0,1-.357-.356m.721-.364h.4a1.552,1.552,0,0,0,0-3.1h-.4Z" transform="translate(-3.868 -1.204)" fill="#a6a6a6"/>
        <path id="Path_157" data-name="Path 157" d="M213.26,55.453h-1.032v3.466a.352.352,0,0,1-.357.357.355.355,0,0,1-.357-.357V55.453h-1.026a.362.362,0,0,1-.357-.364.352.352,0,0,1,.357-.356h2.772a.356.356,0,0,1,.357.356.366.366,0,0,1-.357.364" transform="translate(-4.623 -1.204)" fill="#a6a6a6"/>
        <path id="Path_158" data-name="Path 158" d="M214.787,58.919v-3.83a.353.353,0,0,1,.357-.357.358.358,0,0,1,.364.357v1.558h1.681V55.089a.352.352,0,0,1,.356-.357.358.358,0,0,1,.364.357v3.83a.357.357,0,0,1-.364.357.351.351,0,0,1-.356-.357V57.361h-1.681v1.558a.357.357,0,0,1-.364.357.352.352,0,0,1-.357-.357" transform="translate(-4.725 -1.204)" fill="#a6a6a6"/>
        <path id="Path_159" data-name="Path 159" d="M221.372,59.276A1.873,1.873,0,0,1,219.5,57.4V55.089a.352.352,0,0,1,.358-.356.361.361,0,0,1,.363.356V57.4a1.155,1.155,0,1,0,2.311,0V55.089a.357.357,0,0,1,.363-.356.351.351,0,0,1,.357.356V57.4a1.877,1.877,0,0,1-1.876,1.876" transform="translate(-4.829 -1.204)" fill="#a6a6a6"/>
        <path id="Path_160" data-name="Path 160" d="M257.653,58.919v-3.83a.357.357,0,0,1,.358-.357h2.121a.36.36,0,0,1,0,.721h-1.758V56.64h1.512a.36.36,0,0,1,0,.721h-1.512v1.558a.362.362,0,0,1-.363.357.357.357,0,0,1-.358-.357" transform="translate(-5.668 -1.204)" fill="#a6a6a6"/>
        <path id="Path_161" data-name="Path 161" d="M264.669,58.737a.358.358,0,0,1-.228.454.546.546,0,0,1-.143.02h-.007a.473.473,0,0,1-.253-.071.646.646,0,0,1-.207-.227,1.746,1.746,0,0,1-.136-.779.539.539,0,0,0-.078-.279.6.6,0,0,0-.194-.188,1.229,1.229,0,0,0-.365-.155h-.766v1.408a.362.362,0,0,1-.364.357.356.356,0,0,1-.356-.357v-3.83a.351.351,0,0,1,.356-.357h1.162a1.388,1.388,0,0,1,1.39,1.4,1.373,1.373,0,0,1-.507,1.064,1.012,1.012,0,0,1,.228.241,1.233,1.233,0,0,1,.214.7,1.638,1.638,0,0,0,.025.383.351.351,0,0,1,.228.221m-.91-2.609a.669.669,0,0,0-.669-.675h-.8V56.79h.8a.666.666,0,0,0,.669-.662" transform="translate(-5.755 -1.204)" fill="#a6a6a6"/>
        <path id="Path_162" data-name="Path 162" d="M265.858,55.09a.351.351,0,0,1,.356-.357.362.362,0,0,1,.364.357v3.83a.362.362,0,0,1-.364.357.352.352,0,0,1-.356-.357Z" transform="translate(-5.849 -1.204)" fill="#a6a6a6"/>
        <path id="Path_163" data-name="Path 163" d="M301.528,58.143A.338.338,0,0,1,302,58.1a2.116,2.116,0,0,0,1.24.5,1.4,1.4,0,0,0,.812-.24.587.587,0,0,0,.279-.467.375.375,0,0,0-.058-.207.614.614,0,0,0-.2-.195,2.592,2.592,0,0,0-.889-.305h-.013a3.548,3.548,0,0,1-.838-.253,1.4,1.4,0,0,1-.6-.507,1,1,0,0,1-.15-.532,1.2,1.2,0,0,1,.519-.948,1.927,1.927,0,0,1,1.124-.343,2.539,2.539,0,0,1,1.414.518.334.334,0,0,1,.091.462.327.327,0,0,1-.46.1,1.883,1.883,0,0,0-1.045-.416,1.241,1.241,0,0,0-.728.221.516.516,0,0,0-.246.409.316.316,0,0,0,.045.182.651.651,0,0,0,.176.169,2.242,2.242,0,0,0,.811.285h.013a3.841,3.841,0,0,1,.9.273,1.526,1.526,0,0,1,.649.539,1.05,1.05,0,0,1,.156.552,1.256,1.256,0,0,1-.558,1.006,2.03,2.03,0,0,1-1.2.37,2.793,2.793,0,0,1-1.662-.649.345.345,0,0,1-.052-.473" transform="translate(-6.632 -1.201)" fill="#a6a6a6"/>
        <path id="Path_164" data-name="Path 164" d="M308.311,58.205h-1.577l-.319.843a.363.363,0,0,1-.337.228.388.388,0,0,1-.123-.02.369.369,0,0,1-.214-.467l1.434-3.823a.364.364,0,0,1,.345-.227.355.355,0,0,1,.343.227l1.435,3.823a.368.368,0,0,1-.215.467.352.352,0,0,1-.122.02.347.347,0,0,1-.331-.228Zm-.266-.714-.525-1.4-.526,1.4Z" transform="translate(-6.726 -1.204)" fill="#a6a6a6"/>
        <path id="Path_165" data-name="Path 165" d="M312.391,55.453h-1.032v3.466a.352.352,0,0,1-.357.357.355.355,0,0,1-.357-.357V55.453h-1.026a.362.362,0,0,1-.357-.364.351.351,0,0,1,.357-.356h2.772a.356.356,0,0,1,.357.356.366.366,0,0,1-.357.364" transform="translate(-6.804 -1.204)" fill="#a6a6a6"/>
      </g>
    </g>
    <text id="YEARLY_PLAN" data-name="YEARLY PLAN" transform="translate(16.53 38.465)" fill="#263238" font-size="11" font-family="Quicksand-Bold, Quicksand" font-weight="700"><tspan x="0" y="0" letter-spacing="0.075em">YEAR</tspan><tspan y="0" letter-spacing="0.015em">L</tspan><tspan y="0" letter-spacing="0.075em">Y </tspan><tspan y="0" letter-spacing="0.074em">P</tspan><tspan y="0" letter-spacing="0.075em">LA</tspan><tspan y="0">N</tspan></text>
    <g id="Group_66" data-name="Group 66" transform="translate(0 0)">
      <g id="Group_65" data-name="Group 65" clip-path="url(#clip-path)">
        <path id="Path_166" data-name="Path 166" d="M13.571,5.146a2.524,2.524,0,1,1-2.524-2.524,2.525,2.525,0,0,1,2.524,2.524" transform="translate(-0.188 -0.058)" fill="#fff"/>
        <path id="Path_167" data-name="Path 167" d="M24.111,5.146a2.524,2.524,0,1,1-2.524-2.524,2.525,2.525,0,0,1,2.524,2.524" transform="translate(-0.419 -0.058)" fill="#ffd040"/>
        <path id="Path_168" data-name="Path 168" d="M34.65,5.146a2.524,2.524,0,1,1-2.524-2.524A2.525,2.525,0,0,1,34.65,5.146" transform="translate(-0.651 -0.058)" fill="#f8e9ae"/>
      </g>
    </g>
  </g>
</svg>
